# xmcd
#
# Track frame offsets:
#	150
#	11916
#	24196
#	40804
#	58486
#	76317
#	91541
#	107311
#	125392
#	142102
#	157069
#	176538
#	202432
#	220598
#	250411
#	266407
#
# Disc length: 3885 seconds
#
# Revision: 0
# Processed by: cddbd v1.5.2PL0 Copyright (c) Steve Scherf et al.
# Submitted via: EasyCDDAExtractor 10.0.3.1
#
DISCID=dc0f2b10
DTITLE=Сергей Лазарев - Don't Be Fake
DYEAR=2006
DGENRE=Pop
TTITLE0=Fake
TTITLE1=Can't Let You Go
TTITLE2=Lost Without Your Love
TTITLE3=Beautiful
TTITLE4=Eye Of The Storm
TTITLE5=Do It For Me
TTITLE6=Nobody Told Me
TTITLE7=Just Because You Walk Away
TTITLE8=Someone Like You
TTITLE9=That's Where I Belong
TTITLE10=I'm Gone
TTITLE11=Earth Song
TTITLE12=Даже если ты уйдешь
TTITLE13=Fake (Metro mix)
TTITLE14=Даже если ты уйдешь (HarDrum remix)
TTITLE15=Do It For Me (Groove Brothers extended mix)
EXTD=
EXTT0=
EXTT1=
EXTT2=
EXTT3=
EXTT4=
EXTT5=
EXTT6=
EXTT7=
EXTT8=
EXTT9=
EXTT10=
EXTT11=
EXTT12=
EXTT13=
EXTT14=
EXTT15=
PLAYORDER=
